<svg xmlns="http://www.w3.org/2000/svg" height="48" width="48">
<path d="M24 4A20 20 0 004 24a20 20 0 0020 20 20 20 0 0020-20A20 20 0 0024 4zm-.09 2A18 18 0 0124 6a18 18 0 0118 18 18 18 0 01-18 18A18 18 0 016 24 18 18 0 0123.91 6zm6.451 4.025c-2.367 0-3.382 1.055-4.14 2.26-.509.809-.68 2.303.156 4.283.529 1.253.628 1.669.643 2.707.01.7-.157 1.155-.403 1.7A4 4 0 0024 20a4 4 0 00-.576.041c-.593-.8-1.456-1.736-2.79-2.645-2.42-1.642-5.749-3.238-7.585-2.845-1.351.289-2.162.776-3.147 1.885-1.236 1.391-1.959 3.269-2 5.197-.02 1.004-.09 2.305.834 3.906 1.184 2.05 2.605 2.403 4.028 2.457.954.036 2.333-.563 3.63-2.277.821-1.085 1.132-1.379 2.024-1.91.591-.353 1.061-.439 1.643-.498A4 4 0 0020 24a4 4 0 00.803 2.404c-.367.877-.685 2.089-.819 3.873-.211 2.919.07 6.599 1.328 7.993.927 1.025 1.754 1.484 3.206 1.783 1.823.374 3.81.061 5.5-.867.88-.484 2.042-1.075 2.966-2.676 1.184-2.05.778-3.458.114-4.717-.446-.845-1.654-1.738-3.787-2.004-1.35-.168-1.76-.292-2.666-.799-.622-.347-.935-.729-1.291-1.226a4 4 0 002.33-2.207c1.001-.126 2.276-.432 3.779-1.157 2.633-1.275 5.68-3.36 6.258-5.146.425-1.315.409-2.26-.059-3.666-.587-1.766-1.85-3.333-3.5-4.332-.86-.52-1.951-1.23-3.8-1.23z"
fill="#304878" /></svg>