<svg xmlns="http://www.w3.org/2000/svg" viewBox="0 0 48 48"><path d="M29.75 20.75A3.261 3.261 0 0026.5 24a3.261 3.261 0 003.25 3.25A3.261 3.261 0 0033 24a3.261 3.261 0 00-3.25-3.25zm0 1.5c.975 0 1.75.775 1.75 1.75a1.74 1.74 0 01-1.75 1.75A1.74 1.74 0 0128 24c0-.975.775-1.75 1.75-1.75zm-11.5-1.5A3.261 3.261 0 0015 24a3.261 3.261 0 003.25 3.25A3.261 3.261 0 0021.5 24a3.261 3.261 0 00-3.25-3.25zm0 1.5c.975 0 1.75.775 1.75 1.75a1.74 1.74 0 01-1.75 1.75A1.74 1.74 0 0116.5 24c0-.975.775-1.75 1.75-1.75zM22.5 9.074a14.81 14.81 0 00-1.5.227C14.16 10.694 9 16.754 9 24c0 7.24 5.15 13.295 11.98 14.695l.02.004c.492.1.992.176 1.5.227V34.5h3v4.426a14.81 14.81 0 001.5-.227C33.84 37.306 39 31.246 39 24c0-7.246-5.16-13.306-12-14.7-.492-.1-.992-.175-1.5-.226V13.5h-3zM21 11.117V15h6v-3.883C32.868 12.475 37.234 17.714 37.234 24c0 6.286-4.366 11.525-10.234 12.883V33h-6v3.883C15.132 35.525 10.766 30.286 10.766 24c0-6.286 4.366-11.525 10.234-12.883z" fill="#304878"/><path d="M8 4C5.784 4 4 5.784 4 8v32c0 2.216 1.784 4 4 4h32c2.216 0 4-1.784 4-4V8c0-2.216-1.784-4-4-4zm2 4h28c1.108 0 2 .892 2 2v28c0 1.108-.892 2-2 2H10c-1.108 0-2-.892-2-2V10c0-1.108.892-2 2-2z" fill="#304878"/></svg>