<svg xmlns="http://www.w3.org/2000/svg" height="48" width="48">
   <g fill="#304878">
      <path d="M4 4v40h40V4H4zm2 2h36v36H6V6z" />
      <circle cx="10" cy="10" r="2" />
      <circle cy="10" cx="14" r="2" />
      <circle r="2" cx="18" cy="10" />
      <circle cy="10" cx="22" r="2" />
      <circle r="2" cx="26" cy="10" />
      <circle cy="10" cx="30" r="2" />
      <circle r="2" cx="34" cy="10" />
      <circle cy="10" cx="38" r="2" />
      <circle r="2" cy="14" cx="10" />
      <circle r="2" cx="14" cy="14" />
      <circle cy="14" cx="18" r="2" />
      <circle r="2" cx="22" cy="14" />
      <circle cy="14" cx="26" r="2" />
      <circle r="2" cx="30" cy="14" />
      <circle cy="14" cx="34" r="2" />
      <circle r="2" cx="38" cy="14" />
      <circle cx="10" cy="18" r="2" />
      <circle cy="18" cx="14" r="2" />
      <circle r="2" cx="18" cy="18" />
      <circle cy="18" cx="22" r="2" />
      <circle r="2" cx="26" cy="18" />
      <circle cy="18" cx="30" r="2" />
      <circle r="2" cx="34" cy="18" />
      <circle cy="18" cx="38" r="2" />
      <circle r="2" cy="22" cx="10" />
      <circle r="2" cx="14" cy="22" />
      <circle cy="22" cx="18" r="2" />
      <circle r="2" cx="22" cy="22" />
      <circle cy="22" cx="26" r="2" />
      <circle r="2" cx="30" cy="22" />
      <circle cy="22" cx="34" r="2" />
      <circle r="2" cx="38" cy="22" />
      <circle cx="10" cy="26" r="2" />
      <circle cy="26" cx="14" r="2" />
      <circle r="2" cx="18" cy="26" />
      <circle cy="26" cx="22" r="2" />
      <circle r="2" cx="26" cy="26" />
      <circle cy="26" cx="30" r="2" />
      <circle r="2" cx="34" cy="26" />
      <circle cy="26" cx="38" r="2" />
      <circle r="2" cy="30" cx="10" />
      <circle r="2" cx="14" cy="30" />
      <circle cy="30" cx="18" r="2" />
      <circle r="2" cx="22" cy="30" />
      <circle cy="30" cx="26" r="2" />
      <circle r="2" cx="30" cy="30" />
      <circle cy="30" cx="34" r="2" />
      <circle r="2" cx="38" cy="30" />
      <circle cx="10" cy="34" r="2" />
      <circle cy="34" cx="14" r="2" />
      <circle r="2" cx="18" cy="34" />
      <circle cy="34" cx="22" r="2" />
      <circle r="2" cx="26" cy="34" />
      <circle cy="34" cx="30" r="2" />
      <circle r="2" cx="34" cy="34" />
      <circle cy="34" cx="38" r="2" />
      <circle r="2" cy="38" cx="10" />
      <circle r="2" cx="14" cy="38" />
      <circle cy="38" cx="18" r="2" />
      <circle r="2" cx="22" cy="38" />
      <circle cy="38" cx="26" r="2" />
      <circle r="2" cx="30" cy="38" />
      <circle cy="38" cx="34" r="2" />
      <circle r="2" cx="38" cy="38" />
   </g>
</svg>